<svg width="24" height="25" viewBox="0 0 24 25" fill="none" xmlns="http://www.w3.org/2000/svg">
    <g clip-path="url(#clip0_72_17238)">
        <path d="M16.5 3.5C19.538 3.5 22 6 22 9.5C22 16.5 14.5 20.5 12 22C9.5 20.5 2 16.5 2 9.5C2 6 4.5 3.5 7.5 3.5C9.36 3.5 11 4.5 12 5.5C13 4.5 14.64 3.5 16.5 3.5ZM12.934 19.104C13.815 18.548 14.61 17.995 15.354 17.403C18.335 15.033 20 12.443 20 9.5C20 7.14 18.463 5.5 16.5 5.5C15.424 5.5 14.26 6.07 13.414 6.914L12 8.328L10.586 6.914C9.74 6.07 8.576 5.5 7.5 5.5C5.56 5.5 4 7.156 4 9.5C4 12.444 5.666 15.033 8.645 17.403C9.39 17.995 10.185 18.548 11.066 19.103C11.365 19.292 11.661 19.473 12 19.675C12.339 19.473 12.635 19.292 12.934 19.104Z" fill="#272624"></path>
    </g>
    <defs>
        <clipPath id="clip0_72_17238">
            <rect width="50" height="50" fill="white" transform="translate(0 0.5)"></rect>
        </clipPath>
    </defs>
</svg>